<svg width="171" height="171" viewBox="0 0 171 171" fill="none" xmlns="http://www.w3.org/2000/svg">
<path d="M72.3543 134.722L68.6523 146.263L67.0891 145.761L70.7911 134.22L72.3543 134.722ZM71.29 134.38L70.8313 135.81L64.645 133.826L65.1038 132.396L71.29 134.38Z" fill="#47B208"/>
<path d="M54.8522 126.54C55.5764 127.007 56.1666 127.574 56.6227 128.242C57.0725 128.919 57.3777 129.649 57.5385 130.432C57.6929 131.224 57.6973 132.023 57.5516 132.829C57.3962 133.629 57.0851 134.392 56.6184 135.116C56.1454 135.85 55.5799 136.448 54.9218 136.911C54.2476 137.376 53.5261 137.701 52.7571 137.884C51.9783 138.061 51.1954 138.083 50.4086 137.95C49.612 137.81 48.8515 137.507 48.1273 137.041C47.4031 136.574 46.8178 136.01 46.3715 135.348C45.9154 134.68 45.607 133.955 45.4462 133.173C45.2855 132.391 45.2779 131.596 45.4236 130.79C45.5693 129.984 45.8786 129.213 46.3516 128.479C46.8183 127.755 47.3887 127.16 48.0629 126.694C48.7371 126.228 49.4635 125.907 50.2423 125.73C51.0113 125.547 51.7973 125.52 52.6003 125.65C53.3871 125.783 54.1378 126.08 54.8522 126.54ZM54.0302 127.88C53.2962 127.407 52.5479 127.16 51.7854 127.14C51.0068 127.123 50.2669 127.304 49.5655 127.683C48.8579 128.072 48.2581 128.648 47.7662 129.412C47.4004 129.979 47.1591 130.558 47.0423 131.147C46.9193 131.747 46.9106 132.33 47.0163 132.897C47.122 133.463 47.3401 133.985 47.6705 134.461C47.9945 134.947 48.4306 135.366 48.9787 135.719C49.7029 136.186 50.4511 136.433 51.2234 136.46C51.9859 136.48 52.7178 136.301 53.4192 135.921C54.1108 135.536 54.7025 134.962 55.1944 134.198C55.5602 133.631 55.8127 133.045 55.9518 132.443C56.0749 131.843 56.0885 131.263 55.9925 130.703C55.8805 130.146 55.6625 129.624 55.3384 129.139C55.0045 128.646 54.5685 128.227 54.0302 127.88Z" fill="#47B208"/>
<path d="M43.629 124.205L42.6272 125.153L40.3696 122.769C39.8812 122.254 39.3739 121.98 38.8477 121.95C38.3214 121.919 37.8343 122.116 37.3862 122.54C36.9636 122.94 36.7448 123.412 36.7301 123.955C36.7073 124.49 36.9401 125.015 37.4284 125.531L39.6981 127.927L38.6583 128.912L36.3526 126.477C35.8242 125.919 35.4738 125.329 35.3013 124.707C35.1203 124.093 35.1118 123.499 35.2756 122.927C35.4314 122.347 35.7502 121.828 36.2321 121.372C36.7308 120.9 37.2743 120.602 37.8624 120.477C38.4425 120.345 39.0343 120.386 39.638 120.6C40.2331 120.822 40.7949 121.212 41.3233 121.77L43.629 124.205ZM48.215 121.377L39.4148 129.711L38.286 128.519L47.0862 120.185L48.215 121.377ZM43.4115 116.305L42.4941 123.235L41.0322 122.479L41.9825 114.796L43.4115 116.305Z" fill="#47B208"/>
<path d="M40.7569 112.533L30.2708 118.611L29.4476 117.191L39.9336 111.113L40.7569 112.533ZM40.1964 111.566L38.8969 112.319L35.4113 106.306L36.7107 105.553L40.1964 111.566ZM35.452 114.316L34.213 115.034L31.0163 109.519L32.2553 108.801L35.452 114.316ZM31.0097 116.891L29.7103 117.644L26.2685 111.706L27.5679 110.953L31.0097 116.891Z" fill="#47B208"/>
<path d="M34.6623 100.923L22.8527 103.649L22.5934 102.526L29.6574 95.6257L29.8342 96.3915L20.4602 93.2862L20.2009 92.1631L32.0104 89.4365L32.3797 91.0361L23.3779 93.1144L23.3936 92.7164L30.7884 95.1675L31.0477 96.2906L25.4758 101.735L25.2912 101.401L34.293 99.3232L34.6623 100.923Z" fill="#47B208"/>
<path d="M32.566 74.7914L20.6127 72.7873L20.8841 71.1682L32.8375 73.1724L32.566 74.7914Z" fill="#47B208"/>
<path d="M30.1722 64.576L28.837 64.0582L30.0303 60.9808C30.1945 60.5574 30.2529 60.1492 30.2054 59.7562C30.1622 59.3523 30.019 58.9971 29.7758 58.6905C29.5367 58.373 29.2001 58.1301 28.7659 57.9617C28.3317 57.7934 27.9193 57.7459 27.5287 57.8192C27.1424 57.8817 26.7971 58.0475 26.4929 58.3166C26.193 58.575 25.9609 58.9158 25.7967 59.3392L24.6034 62.4166L23.2682 61.8989L24.4994 58.7237C24.7688 58.029 25.1499 57.4649 25.6425 57.0316C26.1395 56.5874 26.7095 56.309 27.3526 56.1962C27.9891 56.0684 28.6601 56.1413 29.3657 56.4149C30.0605 56.6843 30.6052 57.0828 31 57.6105C31.3881 58.1231 31.6214 58.7131 31.6998 59.3804C31.7716 60.0326 31.6728 60.706 31.4034 61.4008L30.1722 64.576ZM34.1709 67.3065L22.8704 62.9247L23.4639 61.3941L34.7644 65.7759L34.1709 67.3065Z" fill="#47B208"/>
<path d="M42.1265 52.023C41.5796 52.8055 40.9695 53.3734 40.2963 53.7268C39.6231 54.0801 38.8645 54.2814 38.0204 54.3305L37.7447 52.7741C38.4038 52.766 38.9913 52.6369 39.5071 52.3867C40.0134 52.1298 40.4767 51.7007 40.897 51.0995C41.3105 50.5079 41.5119 49.9455 41.5011 49.4123C41.4969 48.8696 41.2706 48.4415 40.8221 48.128C40.4499 47.8678 40.0893 47.7436 39.7402 47.7552C39.3911 47.7669 39.0416 47.8706 38.6917 48.0664C38.3389 48.2459 37.9852 48.4674 37.6305 48.7309C37.2663 48.9877 36.8974 49.2412 36.5236 49.4914C36.1403 49.7348 35.7484 49.9297 35.3479 50.0758C34.9379 50.2154 34.5025 50.259 34.0418 50.2069C33.5877 50.1452 33.1078 49.9375 32.602 49.584C32.039 49.1904 31.6553 48.7233 31.4508 48.1826C31.2435 47.6257 31.1983 47.0401 31.3152 46.4258C31.4293 45.7952 31.6931 45.1841 32.1067 44.5925C32.5603 43.9436 33.096 43.4516 33.7139 43.1164C34.3222 42.7745 34.9449 42.5848 35.582 42.5472L35.8577 44.1037C35.3074 44.1593 34.8263 44.2989 34.4144 44.5224C34.0092 44.7363 33.6531 45.0627 33.3463 45.5017C32.9727 46.036 32.7952 46.5441 32.8136 47.0257C32.8225 47.5007 33.0369 47.885 33.4567 48.1785C33.7907 48.412 34.1227 48.5162 34.4527 48.4912C34.7798 48.4499 35.115 48.3362 35.4583 48.15C35.8015 47.9638 36.1553 47.7423 36.5195 47.4855C36.8808 47.2124 37.2531 46.9542 37.6364 46.7107C38.0196 46.4673 38.4211 46.2791 38.8407 46.1463C39.2603 46.0134 39.7066 45.9845 40.1798 46.0596C40.6501 46.1184 41.1476 46.3312 41.6724 46.6981C42.5504 47.3118 43.024 48.0975 43.0932 49.0551C43.1692 50.0031 42.847 50.9924 42.1265 52.023Z" fill="#47B208"/>
<path d="M50.7211 42.7095C50.0518 43.3059 49.3203 43.6925 48.5267 43.8694C47.734 44.0299 46.9532 43.9849 46.1842 43.7344C45.4075 43.4752 44.721 43.0109 44.1246 42.3416L39.0476 36.6434L40.2733 35.5513L45.327 41.2234C45.753 41.7015 46.2209 42.0254 46.7307 42.195C47.2404 42.3645 47.75 42.3939 48.2594 42.2831C48.7775 42.1645 49.2495 41.9155 49.6755 41.536C50.1188 41.141 50.4205 40.7007 50.5804 40.2151C50.749 39.7218 50.7741 39.2161 50.6555 38.698C50.5456 38.1721 50.2816 37.6745 49.8633 37.2051L44.7979 31.5199L46.0367 30.4162L51.1253 36.1274C51.7217 36.7968 52.1001 37.5278 52.2606 38.3205C52.421 39.1131 52.376 39.8939 52.1255 40.6629C51.8673 41.4232 51.3992 42.1054 50.7211 42.7095Z" fill="#47B208"/>
<path d="M57.3617 37.2953L52.3156 26.2755L53.3636 25.7956L61.5438 31.3273L60.8293 31.6545L61.9858 21.8475L63.0337 21.3676L68.0798 32.3874L66.5872 33.0709L62.7409 24.671L63.1338 24.6063L62.2202 32.343L61.1722 32.8229L54.7181 28.46L55.0079 28.212L58.8543 36.6118L57.3617 37.2953Z" fill="#47B208"/>
<path d="M83.5369 29.8864L83.5697 28.3849L86.9395 28.4584C87.8358 28.478 88.6257 28.3031 89.3092 27.9337C89.993 27.5527 90.5286 27.0229 90.9161 26.3443C91.3152 25.6659 91.5245 24.8786 91.5441 23.9823C91.5634 23.0976 91.3885 22.3077 91.0194 21.6126C90.6503 20.9174 90.1323 20.3704 89.4656 19.9715C88.7989 19.5727 88.0232 19.3636 87.1385 19.3443L83.7862 19.2711L83.819 17.7695L87.2062 17.8435C88.0909 17.8628 88.9024 18.0319 89.6407 18.3508C90.3907 18.67 91.0333 19.1091 91.5684 19.6681C92.1152 20.2274 92.5319 20.877 92.8185 21.6169C93.1168 22.3571 93.2564 23.1637 93.2373 24.0367C93.2185 24.8981 93.0439 25.6978 92.7133 26.4359C92.3946 27.1626 91.9558 27.7936 91.3968 28.3287C90.8377 28.8638 90.1766 29.2745 89.4134 29.5606C88.6618 29.8469 87.8495 29.9806 86.9765 29.9615L83.5369 29.8864ZM82.4544 29.8628L82.719 17.7455L84.3602 17.7813L84.0956 29.8986L82.4544 29.8628Z" fill="#47B208"/>
<path d="M101.561 32.7252C100.734 32.4839 100.007 32.1081 99.3793 31.5976C98.7553 31.076 98.2549 30.4631 97.8782 29.7589C97.5047 29.0436 97.2731 28.2786 97.1832 27.4641C97.1045 26.6528 97.1859 25.8336 97.4271 25.0065C97.6717 24.1682 98.0436 23.4338 98.5429 22.8033C99.0566 22.1648 99.656 21.6484 100.341 21.2539C101.037 20.8628 101.782 20.619 102.574 20.5227C103.377 20.4296 104.192 20.5036 105.019 20.7449C105.847 20.9862 106.568 21.3604 107.184 21.8676C107.812 22.3781 108.314 22.9854 108.69 23.6896C109.067 24.3938 109.3 25.1531 109.39 25.9677C109.48 26.7822 109.403 27.6086 109.158 28.4469C108.917 29.274 108.539 30.0068 108.026 30.6452C107.512 31.2837 106.907 31.7985 106.211 32.1897C105.526 32.5841 104.78 32.8334 103.973 32.9377C103.181 33.0341 102.377 32.9633 101.561 32.7252ZM101.968 31.2066C102.806 31.4511 103.593 31.4747 104.33 31.2772C105.081 31.0719 105.739 30.6877 106.304 30.1247C106.871 29.5505 107.282 28.8275 107.537 27.9557C107.726 27.3074 107.792 26.6841 107.737 26.0856C107.684 25.476 107.526 24.9146 107.264 24.4014C107.001 23.8881 106.644 23.4503 106.192 23.088C105.743 22.7145 105.205 22.4364 104.579 22.2538C103.752 22.0125 102.965 21.989 102.217 22.1831C101.48 22.3806 100.829 22.7608 100.265 23.3238C99.7115 23.8901 99.3077 24.6091 99.0534 25.4809C98.8643 26.1292 98.7888 26.7621 98.827 27.3796C98.8795 27.9892 99.0316 28.549 99.283 29.059C99.5489 29.5611 99.9063 29.9989 100.355 30.3724C100.815 30.7492 101.353 31.0272 101.968 31.2066Z" fill="#47B208"/>
<path d="M109.411 35.8611L115.089 25.1536L116.54 25.9227L110.861 36.6302L109.411 35.8611ZM110.398 36.3848L111.102 35.0579L116.841 38.1018L116.138 39.4287L110.398 36.3848Z" fill="#47B208"/>
<path d="M120.144 43.4017C119.481 42.8523 118.962 42.219 118.588 41.5017C118.222 40.7755 118.006 40.0144 117.939 39.2186C117.88 38.4138 117.97 37.6197 118.211 36.8363C118.46 36.0603 118.859 35.3404 119.409 34.6767C119.966 34.004 120.598 33.4772 121.306 33.0962C122.031 32.7137 122.786 32.4771 123.571 32.3866C124.366 32.3034 125.146 32.3746 125.911 32.6002C126.686 32.8331 127.405 33.2243 128.068 33.7737C128.732 34.323 129.246 34.9527 129.611 35.6625C129.984 36.3798 130.205 37.1364 130.271 37.9322C130.338 38.728 130.251 39.5176 130.011 40.3011C129.77 41.0845 129.372 41.8125 128.815 42.4852C128.266 43.1489 127.629 43.672 126.904 44.0546C126.179 44.4371 125.42 44.6699 124.625 44.7531C123.84 44.8436 123.057 44.7769 122.275 44.5529C121.509 44.3274 120.799 43.9436 120.144 43.4017ZM121.12 42.1686C121.792 42.7254 122.506 43.0592 123.261 43.17C124.032 43.2792 124.788 43.1873 125.529 42.8941C126.278 42.592 126.942 42.0912 127.521 41.3916C127.952 40.8714 128.26 40.3255 128.446 39.7539C128.639 39.1734 128.717 38.5955 128.679 38.0202C128.642 37.4449 128.487 36.9013 128.216 36.3894C127.952 35.8685 127.568 35.4002 127.066 34.9845C126.402 34.4351 125.689 34.1013 124.925 33.9831C124.17 33.8723 123.422 33.9635 122.681 34.2567C121.949 34.5572 121.293 35.0573 120.714 35.7569C120.283 36.2771 119.963 36.8282 119.753 37.4103C119.56 37.9908 119.478 38.565 119.506 39.1329C119.551 39.6992 119.706 40.2428 119.97 40.7637C120.243 41.292 120.626 41.7603 121.12 42.1686Z" fill="#47B208"/>
<path d="M131.009 47.0529L132.116 46.2298L134.075 48.8649C134.499 49.4349 134.97 49.7664 135.489 49.8595C136.008 49.9525 136.515 49.815 137.01 49.4469C137.477 49.0996 137.75 48.6572 137.83 48.1196C137.916 47.5914 137.747 47.0423 137.323 46.4723L135.354 43.8232L136.503 42.9689L138.504 45.66C138.962 46.2768 139.24 46.9043 139.337 47.5428C139.444 48.1743 139.382 48.7643 139.152 49.3129C138.928 49.8708 138.55 50.3477 138.017 50.7436C137.466 51.1534 136.891 51.3849 136.292 51.4382C135.701 51.5009 135.118 51.3901 134.544 51.1059C133.979 50.8147 133.468 50.3607 133.009 49.744L131.009 47.0529ZM126.12 49.3162L135.847 42.0859L136.826 43.4034L127.099 50.6337L126.12 49.3162ZM130.287 54.9227L132.021 48.1505L133.382 49.075L131.527 56.5907L130.287 54.9227Z" fill="#47B208"/>
<path d="M136.175 69.443C135.916 68.5243 135.862 67.6925 136.015 66.9477C136.167 66.2029 136.492 65.4882 136.988 64.8036L138.367 65.5754C137.957 66.0907 137.685 66.6272 137.552 67.185C137.43 67.7396 137.469 68.3698 137.668 69.0757C137.865 69.7704 138.173 70.2822 138.592 70.6114C139.015 70.9517 139.49 71.0475 140.016 70.8987C140.453 70.7753 140.778 70.5748 140.99 70.2971C141.202 70.0195 141.343 69.6833 141.413 69.2885C141.497 68.9017 141.549 68.4876 141.57 68.0463C141.602 67.6018 141.639 67.1557 141.682 66.708C141.736 66.2572 141.833 65.8305 141.974 65.4279C142.125 65.0221 142.367 64.6574 142.699 64.3338C143.034 64.0213 143.499 63.7812 144.092 63.6135C144.753 63.4268 145.358 63.4254 145.906 63.6094C146.468 63.8014 146.95 64.1371 147.352 64.6164C147.768 65.1039 148.074 65.6949 148.27 66.3896C148.485 67.1515 148.527 67.8777 148.396 68.5682C148.275 69.2555 148.028 69.8577 147.654 70.3747L146.274 69.6029C146.579 69.1417 146.776 68.6809 146.864 68.2205C146.955 67.7714 146.927 67.2892 146.782 66.7738C146.604 66.1463 146.324 65.6873 145.939 65.3966C145.566 65.1028 145.132 65.0256 144.639 65.1648C144.247 65.2756 143.956 65.4666 143.767 65.7379C143.592 66.0173 143.468 66.3488 143.395 66.7324C143.321 67.116 143.269 67.53 143.237 67.9745C143.22 68.4271 143.184 68.8788 143.13 69.3296C143.076 69.7804 142.967 70.2103 142.805 70.6192C142.642 71.0282 142.382 71.392 142.024 71.7108C141.681 72.0376 141.201 72.2881 140.585 72.4621C139.554 72.7533 138.646 72.6226 137.861 72.0701C137.079 71.5288 136.517 70.6531 136.175 69.443Z" fill="#47B208"/>
<path d="M137.833 77.5273L149.901 76.3977L150.054 78.0322L137.986 79.1618L137.833 77.5273Z" fill="#47B208"/>
<path d="M137.854 88.4095L149.586 89.3658L149.452 91.002L137.72 90.0457L137.854 88.4095ZM148.772 85.1642L150.269 85.2862L149.467 95.1209L147.97 94.9989L148.772 85.1642Z" fill="#47B208"/>
<path d="M134.651 102.449L143.311 112.272L142.784 113.336L129.73 112.387L130.52 110.79L141.513 111.693L141.241 112.241L133.876 104.014L134.651 102.449ZM136.062 105.778L137.345 106.414L134.516 112.126L133.233 111.491L136.062 105.778Z" fill="#47B208"/>
<path d="M127.539 115.409L136.278 123.807L135.479 124.638L125.84 122.496L126.384 121.929L128.909 131.476L128.11 132.307L119.371 123.909L120.508 122.725L127.17 129.127L126.828 129.331L124.838 121.799L125.636 120.968L133.241 122.657L133.063 122.994L126.401 116.593L127.539 115.409Z" fill="#47B208"/>
<path d="M113.71 127.827L119.594 138.423L118.159 139.22L112.274 128.624L113.71 127.827ZM112.733 128.369L113.462 129.682L107.385 133.057L106.656 131.744L112.733 128.369ZM115.395 133.163L116.09 134.415L110.517 137.51L109.822 136.258L115.395 133.163ZM117.887 137.652L118.617 138.965L112.616 142.297L111.887 140.984L117.887 137.652Z" fill="#47B208"/>
<path d="M98.7296 134.332L101.997 145.64L100.42 146.096L97.1524 134.787L98.7296 134.332ZM105.637 143.388L106.054 144.831L96.5742 147.57L96.1572 146.128L105.637 143.388Z" fill="#47B208"/>
<circle cx="85.0376" cy="82.6832" r="10.27" fill="#47B208"/>
</svg>
